<?xml version="1.0"?>
<svg xmlns="http://www.w3.org/2000/svg" xmlns:xlink="http://www.w3.org/1999/xlink" version="1.1" id="Capa_1" x="0px" y="0px" viewBox="0 0 461.409 461.409" style="enable-background:new 0 0 461.409 461.409;" xml:space="preserve" width="512px" height="512px" class=""><g><g>
	<path style="fill:#57A4FF" d="M264.804,327.467c20.781-1.797,40.786-5.23,59.394-10.172v0   c17.127-4.548,33.072-10.373,47.349-17.377c30.621-15.021,51.891-34.586,62.375-56.846c1.085-2.303,2.054-4.635,2.906-6.993   c2.179-6.029,3.579-12.236,4.201-18.582c-3.22-32.822-27.596-61.873-69.482-82.421c-38.131-18.706-88.15-29.008-140.843-29.008   c-52.692,0-102.712,10.302-140.842,29.008c-41.886,20.548-66.262,49.599-69.483,82.421c3.22,32.822,27.596,61.873,69.483,82.421   c2.503,1.228,5.061,2.415,7.663,3.57c0.027-0.391,0.059-0.778,0.092-1.163c-0.974-20.255,5.534-40.792,19.559-57.071   c-0.134-0.065-0.271-0.128-0.404-0.193c-21.668-10.63-35.669-24.393-35.669-35.063c0-10.67,14.001-24.434,35.67-35.064   c29.487-14.465,71.013-22.762,113.931-22.762c42.917,0,84.444,8.297,113.931,22.763c21.668,10.629,35.67,24.393,35.67,35.063   c0,0.333-0.014,0.67-0.041,1.009c-0.166,2.071-0.841,4.249-1.968,6.488c1.313,2.608,2.008,5.132,2.008,7.503   c0,0.333-0.014,0.67-0.041,1.01c-0.842,10.518-14.637,23.756-35.629,34.053c-6.297,3.089-13.146,5.894-20.438,8.4   c-21.465,7.376-46.786,12.137-73.324,13.75v-15v-17.662c0-3.292-1.983-6.26-5.025-7.52c-1.007-0.417-2.064-0.62-3.113-0.62   c-2.118,0-4.2,0.827-5.757,2.385l-62.082,62.082l62.082,62.082c1.557,1.557,3.639,2.385,5.757,2.385   c1.048,0,2.106-0.203,3.113-0.62c3.042-1.26,5.025-4.228,5.025-7.52v-18.785v-15C255.55,328.18,260.197,327.865,264.804,327.467z" data-original="#4479FA" class="active-path" data-old_color="#4479FA"/>
	<path style="fill:#004FAC" d="M230.704,91.068c52.693,0,102.712,10.302,140.843,29.008c45.051,22.101,69.862,54.035,69.862,89.921   c0,8.972-1.551,17.696-4.581,26.082c-0.852,2.358-1.821,4.69-2.906,6.993c-10.484,22.26-31.754,41.825-62.375,56.846   c-14.277,7.004-30.222,12.829-47.349,17.377v0c-18.609,4.942-38.613,8.375-59.394,10.172c-4.607,0.398-9.253,0.713-13.93,0.949   v33.785c0,3.292-1.983,6.26-5.025,7.52c-1.007,0.417-2.065,0.62-3.113,0.62c-2.118,0-4.2-0.827-5.757-2.385l-63.827-63.826   c-3.179-3.179-3.179-8.333,0-11.511l63.827-63.826c1.557-1.557,3.639-2.384,5.757-2.385c1.049,0,2.106,0.203,3.113,0.62   c3.042,1.26,5.025,4.228,5.025,7.52v32.662c26.538-1.613,51.86-6.373,73.324-13.75c7.291-2.506,14.141-5.311,20.437-8.4   c20.991-10.298,34.787-23.536,35.629-34.054c0.027-0.339,0.041-0.676,0.041-1.009c0-10.67-14.001-24.434-35.67-35.063   c-29.488-14.466-71.014-22.763-113.931-22.763c-42.917,0-84.443,8.297-113.931,22.762c-21.668,10.63-35.67,24.394-35.67,35.064   c0,10.67,14.001,24.433,35.669,35.063c0.133,0.065,0.271,0.128,0.404,0.193c-14.309,16.607-20.814,37.648-19.511,58.298   c-2.651-1.175-5.256-2.384-7.804-3.634C44.811,277.818,20,245.883,20,209.997c0-35.886,24.811-67.821,69.862-89.921   C127.993,101.37,178.012,91.068,230.704,91.068 M230.704,71.068c-55.686,0-108.833,11.028-149.651,31.052   c-25.174,12.349-44.96,27.65-58.81,45.477C7.484,166.594,0,187.588,0,209.997s7.484,43.404,22.243,62.401   c13.85,17.827,33.636,33.127,58.81,45.476c2.701,1.325,5.564,2.658,8.512,3.964c2.592,1.148,5.352,1.714,8.099,1.714   c4.025,0,8.024-1.214,11.433-3.589c5.736-3.995,8.969-10.695,8.529-17.671c-1.021-16.175,4.2-31.795,14.702-43.984   c4.055-4.706,5.693-11.03,4.432-17.112c-1.26-6.083-5.276-11.235-10.867-13.943l-0.349-0.167l-0.017-0.008   c-14.414-7.079-21.182-13.825-23.609-17.081c2.43-3.26,9.214-10.02,23.663-17.108c26.839-13.167,65.155-20.718,105.122-20.718   c39.967,0,78.283,7.552,105.123,20.719c14.45,7.088,21.233,13.847,23.663,17.107c-2.43,3.26-9.213,10.019-23.663,17.107   c-5.468,2.683-11.568,5.186-18.129,7.441c-14.042,4.826-29.952,8.438-46.824,10.667v-10.665c0-11.421-6.818-21.626-17.37-25.997   c-3.433-1.422-7.055-2.143-10.768-2.143c-7.52,0.001-14.588,2.929-19.902,8.245l-63.824,63.824   c-10.971,10.971-10.972,28.823-0.001,39.795l63.827,63.827c5.315,5.315,12.382,8.242,19.899,8.242c3.712,0,7.333-0.72,10.765-2.142   c10.554-4.372,17.373-14.577,17.373-25.999v-15.208c20.351-1.982,39.996-5.465,58.458-10.368   c18.514-4.916,35.681-11.224,51.024-18.751c34.408-16.879,59.188-39.798,71.66-66.28c1.345-2.856,2.564-5.79,3.622-8.719   c3.829-10.597,5.771-21.659,5.771-32.878c0-22.409-7.484-43.403-22.243-62.401c-13.85-17.827-33.636-33.127-58.81-45.477   C339.538,82.096,286.391,71.068,230.704,71.068L230.704,71.068z" data-original="#2C3D8E" class="" data-old_color="#2C3D8E"/>
</g></g> </svg>
