<?xml version="1.0"?>
<svg xmlns="http://www.w3.org/2000/svg" xmlns:xlink="http://www.w3.org/1999/xlink" version="1.1" id="Capa_1" x="0px" y="0px" viewBox="0 0 490 490" style="enable-background:new 0 0 490 490;" xml:space="preserve" width="512px" height="512px"><g><path d="M93.576,490l151.422-115.699L396.42,490l-57.842-187.194L490,187.15H302.844L244.998,0l-57.841,187.15H0l151.422,115.656  L93.576,490z M135.824,233.088h51.333h33.884l10.005-32.373L245,155.565l13.956,45.151l10.006,32.372h33.883h51.332L310.694,266.3  l-25.466,19.451l9.46,30.617l15.407,49.86l-37.206-28.429l-27.89-21.311l-27.89,21.311l-37.203,28.426l15.407-49.856l9.461-30.618  L179.306,266.3L135.824,233.088z" data-original="#000000" class="active-path" data-old_color="#000000" fill="#747474"/></g> </svg>
