<?xml version="1.0"?>
<svg xmlns="http://www.w3.org/2000/svg" height="512px" viewBox="0 0 512 512" width="512px" class=""><g><path d="m195.695312 109.613281-79.234374 178.3125 107.613281 107.613281 178.3125-79.234374zm0 0" data-original="#000000" class="active-path" data-old_color="#000000" fill="#FFFFFF"/><path d="m100.085938 313.976562-79.800782 79.800782c-13.082031 13.082031-20.285156 30.472656-20.285156 48.96875 0 18.5 7.203125 35.890625 20.285156 48.96875 13.078125 13.082031 30.46875 20.285156 48.96875 20.285156 18.496094 0 35.886719-7.203125 48.96875-20.285156l37.34375-37.34375 57.589844 57.597656 42.460938-42.460938zm0 0" data-original="#000000" class="active-path" data-old_color="#000000" fill="#FFFFFF"/><path d="m449.144531 62.855469c-40.535156-40.53125-94.425781-62.855469-151.75-62.855469v30c101.792969 0 184.605469 82.8125 184.605469 184.605469h30c0-57.320313-22.324219-111.214844-62.855469-151.75zm0 0" data-original="#000000" class="active-path" data-old_color="#000000" fill="#FFFFFF"/><path d="m297.394531 60v30c68.707031 0 124.605469 55.898438 124.605469 124.605469h30c0-85.25-69.355469-154.605469-154.605469-154.605469zm0 0" data-original="#000000" class="active-path" data-old_color="#000000" fill="#FFFFFF"/><path d="m362 214.605469h30c0-52.164063-42.441406-94.605469-94.605469-94.605469v30c35.625 0 64.605469 28.984375 64.605469 64.605469zm0 0" data-original="#000000" class="active-path" data-old_color="#000000" fill="#FFFFFF"/></g> </svg>
